<?xml version="1.0" standalone="no"?>
<!DOCTYPE svg PUBLIC "-//W3C//DTD SVG 20010904//EN"
 "http://www.w3.org/TR/2001/REC-SVG-20010904/DTD/svg10.dtd">
<svg version="1.0" xmlns="http://www.w3.org/2000/svg"
 width="675.000000pt" height="675.000000pt" viewBox="0 0 675.000000 675.000000"
 preserveAspectRatio="xMidYMid meet">
<metadata>
Created by potrace 1.14, written by Peter Selinger 2001-2017
</metadata>
<g transform="translate(0.000000,675.000000) scale(0.100000,-0.100000)"
fill="#000000" stroke="none">
<path d="M3137 6499 c-177 -15 -330 -57 -388 -106 -62 -53 -74 -92 -74 -248 0
-113 5 -159 24 -238 13 -53 21 -101 17 -105 -4 -4 -277 -8 -606 -10 l-598 -3
-127 -135 c-147 -155 -264 -290 -308 -353 -28 -41 -29 -45 -12 -57 52 -38 421
-78 1210 -129 215 -14 408 -29 429 -33 l39 -7 18 -85 c10 -47 29 -134 43 -195
14 -60 22 -112 18 -116 -4 -4 -27 -9 -52 -12 l-45 -6 -37 72 c-21 40 -54 98
-74 131 l-37 58 -51 -6 c-244 -32 -659 -138 -948 -242 -166 -59 -159 -54 -246
-171 -440 -592 -685 -1202 -758 -1885 -13 -122 -15 -209 -10 -428 4 -151 9
-293 12 -316 6 -39 8 -42 137 -119 258 -155 583 -308 877 -412 160 -57 379
-123 405 -123 13 1 44 32 91 93 85 109 214 304 214 321 0 7 -19 18 -42 25
-108 32 -399 159 -412 179 -3 5 19 26 49 45 l54 36 106 -40 c151 -56 361 -114
560 -154 541 -109 978 -109 1520 0 189 38 431 104 574 158 l93 36 54 -36 c29
-20 51 -40 48 -45 -13 -20 -304 -147 -411 -179 -24 -7 -43 -18 -43 -25 0 -17
129 -212 214 -321 47 -61 78 -92 91 -93 26 0 245 66 405 123 293 104 618 256
877 411 l131 79 6 46 c14 116 18 547 7 683 -59 693 -323 1359 -775 1957 l-75
98 -128 46 c-322 116 -723 219 -979 253 l-51 6 -37 -58 c-20 -33 -53 -91 -74
-131 l-37 -72 -45 6 c-25 3 -48 8 -52 12 -4 4 4 56 18 116 14 61 33 148 43
195 21 99 12 94 176 104 1024 63 1535 117 1535 161 0 25 -146 200 -335 400
l-128 135 -551 0 c-303 0 -575 3 -604 7 -61 7 -59 -5 -26 133 12 52 18 119 18
215 1 126 -1 144 -21 181 -42 78 -111 116 -269 149 -151 31 -446 42 -647 24z
m-1033 -2950 c370 -125 463 -175 612 -332 138 -144 175 -237 194 -484 11 -140
5 -257 -15 -289 -9 -14 -48 -33 -122 -57 -175 -57 -259 -71 -428 -71 -232 -1
-305 24 -357 119 -54 99 -86 242 -107 483 -16 176 -35 644 -27 675 4 16 13 27
24 27 10 0 111 -32 226 -71z m2792 44 c8 -31 -11 -499 -27 -675 -21 -241 -53
-384 -107 -483 -32 -59 -74 -89 -145 -105 -84 -18 -254 -24 -350 -11 -159 21
-370 84 -407 121 -25 25 -32 138 -20 300 19 241 56 333 194 477 101 107 188
168 313 222 102 44 499 181 525 181 11 0 20 -10 24 -27z"/>
<path d="M2795 1414 c-163 -194 -610 -756 -683 -861 l-23 -33 33 -20 c77 -48
228 -79 294 -61 55 15 191 101 350 222 113 85 154 111 154 96 0 -2 -11 -89
-25 -193 -14 -104 -25 -208 -25 -231 0 -38 3 -42 33 -52 148 -46 796 -46 945
0 30 10 32 14 32 55 0 24 -9 110 -20 192 -11 81 -22 166 -26 190 -4 29 -2 42
7 42 7 0 71 -45 143 -99 159 -121 295 -207 350 -222 68 -19 248 22 306 69 21
17 20 18 -51 112 -123 161 -445 566 -588 738 l-136 164 -55 -6 c-212 -25 -633
-25 -870 -1 l-55 6 -90 -107z"/>
</g>
</svg>
